PathFileType	4	(X/Y/Z)	results/motion.trc
DataRate	CameraRate	NumFrames	NumMarkers	Units	OrigDataRate	OrigDataStartFrame	OrigNumFrames
27	27	8	20	mm	27	1	614
Frame#	Time	NUI_SKELETON_POSITION_HIP_CENTER	NUI_SKELETON_POSITION_HIP_RIGHT	NUI_SKELETON_POSITION_HIP_LEFT	NUI_SKELETON_POSITION_KNEE_RIGHT	NUI_SKELETON_POSITION_KNEE_LEFT	NUI_SKELETON_POSITION_ANKLE_RIGHT	NUI_SKELETON_POSITION_ANKLE_LEFT	NUI_SKELETON_POSITION_FOOT_RIGHT	NUI_SKELETON_POSITION_FOOT_LEFT	NUI_SKELETON_POSITION_SPINE	NUI_SKELETON_POSITION_SHOULDER_RIGHT	NUI_SKELETON_POSITION_SHOULDER_LEFT	NUI_SKELETON_POSITION_ELBOW_RIGHT	NUI_SKELETON_POSITION_ELBOW_LEFT	NUI_SKELETON_POSITION_WRIST_RIGHT	NUI_SKELETON_POSITION_WRIST_LEFT	NUI_SKELETON_POSITION_HAND_RIGHT	NUI_SKELETON_POSITION_HAND_LEFT	NUI_SKELETON_POSITION_SHOULDER_CENTER	NUI_SKELETON_POSITION_HEAD
X1	Y1	Z1	X2	Y2	Z2	X3	Y3	Z3	X4	Y4	Z4	X5	Y5	Z5	X6	Y6	Z6	X7	Y7	Z7	X8	Y8	Z8	X9	Y9	Z9	X10	Y10	Z10	X11	Y11	Z11	X12	Y12	Z12	X13	Y13	Z13	X14	Y14	Z14	X15	Y15	Z15	X16	Y16	Z16	X17	Y17	Z17	X18	Y18	Z18	X19	Y19	Z19	X20	Y20	Z20	
1	0.048000	-84.103301	-111.602947	2877.761602	-2.886266	-189.593434	2887.110710	-163.403064	-196.496844	2858.462811	47.119115	-582.453191	2943.392515	-210.224852	-587.866604	2932.510138	75.662620	-925.723672	2974.786758	-239.787430	-913.313270	2978.896379	73.032200	-1009.665012	2936.091900	-271.286815	-999.226570	2928.267479	-88.087507	-46.135314	2901.305676	94.596647	184.785634	2945.094347	-262.107342	169.444695	2897.213936	287.730455	51.524531	2968.746185	-465.742528	61.840817	2919.027567	486.418962	48.738230	2920.209646	-659.983993	90.407833	2859.084368	506.482482	72.311379	2919.095993	-700.956881	116.668224	2848.719120	-88.834368	290.332705	2889.236927	-78.724444	469.305247	2892.552137	
2	0.099000	-84.213078	-111.461379	2877.555370	-3.101443	-189.258933	2886.800766	-163.474828	-196.381629	2858.247280	47.334235	-582.509696	2943.485260	-210.332185	-587.911785	2932.620764	76.539189	-926.251352	2976.898193	-239.961341	-912.243783	2976.770401	73.728904	-1008.967161	2936.394215	-269.665450	-991.891265	2928.865433	-88.208795	-46.011783	2901.162148	94.412066	184.977606	2944.831848	-262.121648	169.381097	2896.770000	287.721843	51.508054	2968.664408	-466.311365	61.968286	2919.040918	486.573011	48.833784	2920.137405	-660.696268	90.636536	2859.085321	505.893826	72.147556	2918.965578	-701.254189	116.578594	2849.459171	-88.966973	290.516585	2889.289379	-78.755438	469.299555	2892.246485	
3	0.117000	-84.228568	-111.441426	2877.526283	-3.131791	-189.211786	2886.757135	-163.484991	-196.365327	2858.216763	47.364537	-582.517624	2943.498373	-210.347340	-587.918162	2932.636261	76.662824	-926.326096	2977.196693	-240.011275	-912.167847	2976.426601	73.828526	-1008.867502	2936.437845	-269.435495	-990.856647	2928.949833	-88.225916	-45.994386	2901.142120	94.386041	185.004607	2944.794893	-262.123674	169.372186	2896.707535	287.720591	51.505752	2968.652964	-466.391623	61.986316	2919.042826	486.594677	48.847303	2920.127630	-660.796821	90.668760	2859.085560	505.810976	72.124504	2918.947220	-701.296210	116.565928	2849.563599	-88.986136	290.542245	2889.297247	-78.759804	469.298750	2892.203569	
4	0.167000	-84.242739	-111.423150	2877.499580	-3.159446	-189.168781	2886.717558	-163.494304	-196.350351	2858.189106	47.392111	-582.524836	2943.510056	-210.361302	-587.924004	2932.650566	76.774962	-926.393688	2977.467060	-240.047589	-912.077725	2976.110935	73.919453	-1008.776426	2936.475039	-269.218236	-989.917994	2929.038048	-88.241570	-45.978498	2901.123762	94.362378	185.029224	2944.761276	-262.125492	169.364229	2896.650314	287.719429	51.503699	2968.642712	-466.465086	62.003016	2919.044733	486.614406	48.859656	2920.118332	-660.888731	90.698168	2859.085798	505.735576	72.103515	2918.930292	-701.334834	116.554439	2849.659204	-89.003891	290.565550	2889.304638	-78.763776	469.298005	2892.164469	
5	0.185000	-84.256671	-111.405753	2877.476215	-3.185083	-189.129353	2886.681318	-163.511083	-196.329549	2858.183146	47.417257	-582.531273	2943.521023	-210.385159	-587.926209	2932.720661	76.876581	-926.454842	2977.712631	-240.090698	-911.969781	2975.889444	74.005619	-1008.691430	2936.506987	-268.339872	-988.268256	2928.599834	-88.256001	-45.963611	2901.108265	94.340011	185.050756	2944.726706	-262.135714	169.363618	2896.639585	287.714571	51.501274	2968.601227	-466.544002	62.021669	2919.070244	486.631870	48.873916	2920.099258	-660.980821	90.725198	2859.098434	505.659580	72.086528	2918.874264	-701.380432	116.546519	2849.787474	-89.020722	290.586054	2889.312983	-78.767538	469.297141	2892.128706	
6	0.218000	-84.270395	-111.389928	2877.456903	-3.208988	-189.093620	2886.647463	-163.531363	-196.307659	2858.194351	47.440145	-582.537115	2943.530560	-210.408866	-587.927341	2932.822943	76.960571	-926.515102	2977.914333	-240.138397	-911.877692	2975.807667	74.089445	-1008.612871	2936.529160	-267.464519	-986.694932	2928.335190	-88.269278	-45.950171	2901.096344	94.314873	185.064152	2944.676399	-262.150824	169.369280	2896.665812	287.708491	51.498141	2968.553066	-466.624707	62.038276	2919.115305	486.646026	48.889536	2920.065880	-661.069870	90.750948	2859.120846	505.588531	72.071470	2918.814898	-701.430798	116.538085	2849.921942	-89.037426	290.604055	2889.324665	-78.771010	469.296306	2892.096281	
7	0.269000	-84.284253	-111.375071	2877.440691	-3.231391	-189.061001	2886.616468	-163.556367	-196.284220	2858.220816	47.461070	-582.542062	2943.538904	-210.432366	-587.925375	2932.948589	77.031933	-926.557481	2978.073835	-240.174159	-911.791861	2975.784540	74.186683	-1008.528829	2936.530352	-266.530603	-985.130310	2928.067446	-88.281825	-45.937698	2901.087761	94.290741	185.074300	2944.622993	-262.173206	169.378817	2896.725655	287.700057	51.490653	2968.483925	-466.705143	62.053289	2919.177055	486.657232	48.908442	2920.014620	-661.153257	90.775385	2859.147072	505.513787	72.055444	2918.712378	-701.482654	116.529860	2850.056648	-89.053728	290.619880	2889.337301	-78.774586	469.295353	2892.066717	
8	0.285000	-84.298790	-111.361459	2877.428532	-3.252594	-189.031482	2886.587858	-163.585812	-196.260542	2858.261347	47.479983	-582.546175	2943.546295	-210.456371	-587.922990	2933.093071	77.101193	-926.601231	2978.240728	-240.205795	-911.706984	2975.802660	74.283831	-1008.449674	2936.533928	-265.563071	-983.577311	2927.784443	-88.294007	-45.926493	2901.083946	94.266370	185.081422	2944.563866	-262.202173	169.394657	2896.814346	287.690341	51.480744	2968.403816	-466.785371	62.067464	2919.255733	486.665905	48.927706	2919.950247	-661.233246	90.795308	2859.179974	505.441785	72.039604	2918.599606	-701.520503	116.501123	2850.199223	-89.070164	290.633887	2889.355183	-78.778356	469.294488	2892.040014	
